PathFileType	4	(X/Y/Z)	32_2_109_p1_0-237.trc
DataRate	CameraRate	NumFrames	NumMarkers	Units	OrigDataRate	OrigDataStartFrame	OrigNumFrames
59.0	59.0	6	27	m	59.0	89	238
Frame#	Time	RHip			RKnee			RAnkle			RBigToe			RSmallToe			RHeel			LHip			LKnee			LAnkle			LBigToe			LSmallToe			LHeel			Neck			Head			Nose			RShoulder			RElbow			RWrist			RThumb			RIndex			RPinky			LShoulder			LElbow			LWrist			LThumb			LIndex			LPinky			
		X1	Y1	Z1	X2	Y2	Z2	X3	Y3	Z3	X4	Y4	Z4	X5	Y5	Z5	X6	Y6	Z6	X7	Y7	Z7	X8	Y8	Z8	X9	Y9	Z9	X10	Y10	Z10	X11	Y11	Z11	X12	Y12	Z12	X13	Y13	Z13	X14	Y14	Z14	X15	Y15	Z15	X16	Y16	Z16	X17	Y17	Z17	X18	Y18	Z18	X19	Y19	Z19	X20	Y20	Z20	X21	Y21	Z21	X22	Y22	Z22	X23	Y23	Z23	X24	Y24	Z24	X25	Y25	Z25	X26	Y26	Z26	X27	Y27	Z27	
89	1.5084745762711864	0.33697894442769016	0.41788842316597724	1.0432404863720774	0.32508073038524565	0.4553362443618025	1.4824432994257595	0.31266851332005674	0.4865773766255548	1.9141552960219266	0.31022202006460153	0.26435352577326354	1.870526409611414	0.3693333389987867	0.33222297799038114	1.909136708065929	0.2867500245112463	0.5769397285435188	2.0202904238006134	0.14518565773186784	0.388727542399903	1.0401584634101053	0.14107178667348397	0.4830100147233386	1.501034977978708	0.1305692662524651	0.5058840109488301	1.9431155509879698	0.14728370119929085	0.31540464704781324	1.9132507752853083	0.09737378735658993	0.3524731583490224	1.9258489727365462	0.14393137679136353	0.543637505231344	1.9946412800773923	0.2293958608442199	0.420051573011798	0.5232973754329157	0.22823587427090997	0.38675455962447436	0.3033729602115905	0.23533808478841498	0.3194312694670333	0.4071685920059856	0.377011907298035	0.455369596207631	0.6076768178670271	0.41896574985603946	0.4876798061019295	0.8777912644338389	0.48545464303869057	0.449828531733555	1.097965566683562	0.5270221382385745	0.4328090399283966	1.198568385523837	0.5323125686394913	0.44273091463638303	1.2148225686567802	0.5256178070766495	0.47178508063998914	1.231857702142782	0.07296616582667921	0.42563201905290304	0.617449155074337	0.0444896495865308	0.4056367048352199	0.8707065012536618	0.016145480517539692	0.3561203148102594	1.1068613328361556	0.03307350792474364	0.3309419523191924	1.1976293864022511	0.01995299543894405	0.32553728551243466	1.216757783862623	-0.03587990811291679	0.3813903785692323	1.2331504864559562
90	1.5254237288135593	0.3363393309341119	0.41685605870308173	1.0392025422776772	0.3250402946859018	0.4553210697641264	1.4823907162969645	0.3126745192087659	0.4866052786558686	1.914090939396839	0.3059752473565649	0.278063335275331	1.8806452985317892	0.36883120295087324	0.33390325300074397	1.905805372161458	0.2895607879887344	0.5887051986083287	2.0225503641349962	0.1451204435601478	0.3887239838870455	1.040262644123172	0.13536639880405144	0.49830522982109526	1.504627054363304	0.1305095680465932	0.5058330905619198	1.9430376589410412	0.14894489744942893	0.3165163368872466	1.914916898377602	0.09226312872996487	0.36553484764679794	1.9350580038562664	0.14306934831975007	0.5417957083332551	1.9892216402616605	0.2293915080010947	0.42008086131652134	0.5234187475072489	0.2282079940146728	0.38671750346199385	0.30339977721919115	0.23538008909842403	0.3193975385159538	0.40719483901092446	0.3770103852676848	0.4554053617685973	0.6077455903107697	0.4189392706577929	0.4876976787883913	0.8778359644026009	0.48521513992915316	0.4497448695239099	1.0982070019711723	0.5270522161426436	0.43254865526908187	1.1985044291932545	0.5322966063869582	0.44249350694547795	1.2148395460690848	0.5255121867199903	0.471573548691603	1.2319038592347655	0.07263284309220433	0.42533730640189	0.6204402290097359	0.044491789744111554	0.4054796645582241	0.8706469954461402	0.019246105669565788	0.33370936923051286	1.098156781961769	0.033085965748204084	0.3307825488910793	1.1980249967652967	0.01996252948495142	0.3254967266688023	1.2168869506394693	-0.03512076941915732	0.381551041537501	1.2292553337821746
91	1.5423728813559323	0.3368248250168317	0.4179197765820927	1.0434215078309175	0.32596508458353546	0.4565614018211912	1.487280237106439	0.3092662924356445	0.4740189034448949	1.90640516814772	0.3101643884831442	0.26434870635396546	1.8705991705235592	0.36892281549017464	0.3342904256550704	1.905711987569843	0.29150591088523903	0.560907834985182	2.0094506223277726	0.14560977197160285	0.38990786779210596	1.0449058852788224	0.1357929415090895	0.4968429167216084	1.5080837749078673	0.13056849882638752	0.5059470125034986	1.9430357741325215	0.14791445273875448	0.3171141238196457	1.9188072772065023	0.0922267008093231	0.3656588696837918	1.9351166845433618	0.1438511639976401	0.5437950308858216	1.9948799342148487	0.22914953838726906	0.41928033526856184	0.5199108215717669	0.2282083149082107	0.3865797752617613	0.3034515166891041	0.23910341526110204	0.3203996508071168	0.4072380319828857	0.37700061018452014	0.4554422086347141	0.6077636103456341	0.4188634704673849	0.48762739686554313	0.8778048669670677	0.4851779938934306	0.44977990514565985	1.0982248420588627	0.5270575353324485	0.4326754151529954	1.198365238824894	0.5322353939858159	0.44247024880998925	1.214708347592068	0.5254218491636052	0.4713675291017826	1.2317252093527102	0.07268186066267177	0.42533745085605346	0.6204517496376809	0.03950143168555648	0.4174343193767684	0.8742710875937744	0.021328887880351834	0.3440088903063252	1.1019012905438694	0.033133339569693256	0.33088613676269407	1.1980557466809685	0.020054005657691956	0.3254968338118279	1.2168505895048252	-0.035085168027668506	0.38132669402818103	1.2292996891853416
92	1.5593220338983051	0.33687394903396517	0.41798220648758394	1.043469481813406	0.32602853005137084	0.45663293351361545	1.4873277646965342	0.31266503962475095	0.48677545095700797	1.9144109411276549	0.3101774762633752	0.26406399358187277	1.8712082757264563	0.36881531508198356	0.333811826186574	1.905905159059008	0.2872579831808208	0.5751164693182376	2.0240859698435534	0.14562598471890817	0.38989298099319325	1.0449302499663309	0.1357996105842995	0.49687193582670086	1.508179188128537	0.1305851122880985	0.5057711141893447	1.9429544600230626	0.1479668538155834	0.31703837718988825	1.9190517953837511	0.0979961242538613	0.3538150543024154	1.9316261035942925	0.1426702474982135	0.5432740241002951	2.0001631742780392	0.2291604757527709	0.4192036009513493	0.5200069008451502	0.22845101712722346	0.38616870942398357	0.3065651398568337	0.24189020335480016	0.33003860999408724	0.40834890694974946	0.37698787316116356	0.45546324370766755	0.6077728493050647	0.4188627054351266	0.4876648059770426	0.877777747719339	0.4851908698789563	0.44985296621715803	1.0981912744979136	0.5269357728690821	0.432634320692657	1.1985946870981972	0.5322215638622503	0.4426077165895277	1.2148653694550113	0.5255492269548169	0.4716521736661223	1.2320526203046482	0.07270389063011484	0.4252543192270954	0.6204470509979201	0.03949443432287509	0.4173380621168804	0.8742389867816434	0.019286215502089157	0.33361052866072666	1.098074274440141	0.033183896419216284	0.33091134925262955	1.1980933987205746	0.020089518417947323	0.3255138758166211	1.2168576868724017	-0.03492798678806197	0.3814261040645299	1.2289893218521553
93	1.576271186440678	0.3368787801973262	0.4179650916017598	1.0435031695072912	0.3259990568574659	0.45657360655236856	1.4873223877515414	0.3092668094430592	0.47391440999544987	1.9064590190780166	0.3101159490467584	0.26395194094162555	1.870590528329606	0.36439625314459184	0.33176885022801955	1.9042919048966298	0.29204065471918567	0.558926057216889	2.0131947187556714	0.1456219852329875	0.38991120137976676	1.0449255730892635	0.13539647640026678	0.4983571269256865	1.5045603449810894	0.13143634781008706	0.5074592369806266	1.949234845659127	0.1478692146196279	0.3172725699331057	1.9190726217716259	0.09274148136751453	0.3673835877857681	1.94119788187014	0.14274829022929472	0.5436377163552193	2.000292210956088	0.22916559667246128	0.41925576256623914	0.5199922414506446	0.22850812270560106	0.3862688776640845	0.3065867709202326	0.241952140990793	0.3300357888857171	0.4084467127425708	0.37698257553503794	0.4554995597196127	0.6077711651115725	0.41879966891035175	0.4876197914084277	0.8777586790858907	0.48173338744436073	0.46398765118084395	1.103625544096534	0.5265116418876199	0.43260514949258955	1.2028198110833905	0.5322677095008487	0.44259562363814964	1.2150673692600151	0.5255519470240749	0.47165687239804094	1.2322490149095258	0.07267788400490514	0.42529988901719484	0.6204471132082938	0.03943202882230839	0.4173419205733077	0.8743398647525862	0.021387790206853236	0.34395993841835376	1.1017875674157316	0.033146512871087754	0.33074975411168334	1.1981740668633822	0.020062891352265046	0.32533647991071724	1.2169998498133427	-0.03497082116421949	0.38155798245074285	1.2288613311801901
94	1.5932203389830508	0.3327713651528347	0.4317053986962392	1.0486023624536507	0.3259722455352233	0.45671337813883045	1.4874563359074622	0.30923001992043214	0.47419644240023584	1.9066700638217973	0.3101780192129736	0.26420136482987966	1.8705242627986303	0.36439138176659547	0.33184000791374674	1.9043739840822516	0.2867085243942893	0.5768012346370366	2.0202256851708444	0.14066512601930817	0.4026611403671661	1.0501301665833465	0.13660271263700902	0.49826712777112364	1.5136875123716904	0.13149713867200008	0.5074613276547297	1.9491896384601488	0.14792283870030876	0.3170911863004291	1.918800412588309	0.09487087661468552	0.37926713417830193	1.9489709816483072	0.1426883557216378	0.5439822857077854	2.0003860368258706	0.22915719934578838	0.41922004049110795	0.5199940014949128	0.22849375847774112	0.38630327216649935	0.3065595807216794	0.24197400515602804	0.3300246994478778	0.40842012800892785	0.37697568790563885	0.4555481883247994	0.6077567787685765	0.41492740209437406	0.476972709382518	0.8748921807297503	0.48174042200380107	0.4641022306485233	1.1036249753407126	0.5265547007976209	0.43285143021999867	1.2026636784966525	0.5322043666901526	0.44256959997442985	1.214872156571872	0.5253367248251761	0.47113883309486265	1.23216605469672	0.07266629478325176	0.4252741771706117	0.6204330884018836	0.03943292063526354	0.4175802279406236	0.8744763383967931	0.021358941959197027	0.344012199362355	1.1019319830920324	0.03317319628528319	0.33064586916965294	1.1980775883681403	0.02499324011931752	0.314703839454068	1.2121916415820697	-0.03494503258284953	0.38142463636661017	1.2288094471480873
